<?xml version="1.0" encoding="utf-8"?>
<!-- Generator: Adobe Illustrator 21.0.2, SVG Export Plug-In . SVG Version: 6.00 Build 0)  -->
<svg version="1.1" id="Layer_1" xmlns="http://www.w3.org/2000/svg" xmlns:xlink="http://www.w3.org/1999/xlink" x="0px" y="0px"
	 viewBox="0 0 268 255" style="enable-background:new 0 0 268 255;" xml:space="preserve">
<style type="text/css">
	.st0{fill:#BBBBBB;}
	.st1{fill:#FFFFFF;}
	.st2{fill:#A7A7A7;}
	.st3{fill:#C7C7C7;}
	.st4{fill:none;}
	.st5{fill:none;stroke:#FFFFFF;stroke-width:15;stroke-miterlimit:10;}
	.st6{display:none;}
	.st7{display:inline;}
	.st8{fill:none;stroke:#000000;stroke-width:15;stroke-miterlimit:10;}
	.st9{fill:#ABABAB;}
</style>
<g id="atom">
	<g>
		<g>
			<path class="st0" d="M166.9,70.6c-7.7-4.8-15-6.7-22.2-11.5c-4.5-3.1-10.8-10.3-16-16.6c-1,10-4.1,14.1-7.6,17
				c-7.4,5.8-12.1,7.6-18.4,11C97.2,73.3,68,90.8,68,128.3s31.5,65.1,66.6,65.1s65.4-25.4,65.4-64S171.5,73.5,166.9,70.6z"/>
			<path class="st1" d="M155,160.8c2.3,0,4.8,0.2,6.5,1.3c1.7,1.2,2.8,3.8,3.3,5.2c0.6,1.5,0,2.3-1.2,2.9c-1,0.6-1.2,0.3-2.2-1.6
				c-1-1.9-1.9-3.8-7-3.8s-6.7,1.7-9.1,3.8c-2.5,2-3.3,2.8-4.2,1.6s-0.6-2.3,1-3.8s4.2-3.8,6.7-4.8S152.7,160.8,155,160.8L155,160.8
				z"/>
			<path class="st1" d="M130.9,177.4c2.9,2.3,7.3,4.2,16.6,4.2s15.8-2.6,18.7-4.8c1.3-1,1.9-0.2,2,0.4c0.1,0.6,0.4,1.5-0.6,2.5
				c-0.7,0.7-7.4,5.4-15.3,6.1c-7.9,0.7-18.4,1.2-24.8-4.7c-1-1-0.7-2.5,0-3.1s1.3-1,2.2-1S130.5,177.1,130.9,177.4L130.9,177.4z"/>
			<path class="st2" d="M95.3,166.3c11-0.2,13.1-2,22.8-6.4c52.6-23.5,62.4-45.1,64.2-50c1.9-4.9,4.7-12.9,1.7-21.8
				c-0.6-1.7-1-3.1-1.3-4.2c-7-7.8-13.9-12.1-16-13.4c-7.6-4.8-15-6.7-22.2-11.5c-4.5-2.9-10.8-10.3-16-16.6c-1,10-3.9,14.2-7.6,17
				c-7.4,5.8-12.1,7.6-18.4,11C97.2,73.5,68,90.8,68,128.3c0,12,3.2,22.9,8.7,32.3l1.4-0.1C81.2,163.3,86,166.5,95.3,166.3z"/>
			<path class="st3" d="M166.8,70.6c-7.6-4.8-15-6.7-22.2-11.5c-4.5-2.9-10.8-10.3-16-16.6c-1,10-3.9,14.2-7.6,17
				c-7.4,5.8-12.1,7.6-18.4,11c-5.4,3-34.6,20.3-34.6,57.8c0,12,3.2,22.9,8.7,32.3c11.8,20,34,32.8,57.8,32.8
				c35,0,65.4-25.4,65.4-63.9c0-21.1-8.6-35.9-17.1-45.5C175.9,76.1,168.9,71.9,166.8,70.6z M184.5,87.6c9.5,11.9,14.4,26,14.4,41.9
				c0,9.2-1.7,17.9-5.2,25.8c-3.3,7.5-8,14.2-14,19.8c-11.9,11.1-27.9,17.2-45.1,17.2c-8.5,0-16.8-1.6-24.8-4.8
				c-7.8-3.1-14.8-7.6-20.9-13.4c-12.8-12.1-19.8-28.4-19.8-45.8c0-15.6,5.1-29.4,15-41.1c7.6-9,15.8-13.9,19-15.6
				c1.6-0.8,3-1.6,4.4-2.3c4.4-2.2,8.5-4.4,14.2-8.8c3-2.3,6.3-6,7.7-15.3c4.8,5.7,10.4,12.1,14.6,14.9c3.8,2.5,7.7,4.2,11.4,5.9
				c3.5,1.6,7.2,3.3,10.8,5.6l0.1,0.1C177,78.2,182.6,85.3,184.5,87.6z"/>
			<path class="st2" d="M129.3,45.4c2,6,1.7,9,1.7,10.3s-0.7,4.8-3.1,6.5c-1,0.7-1.3,1.3-1.3,1.5c0,0.6,1.3,1,1.3,2.3
				c0,1.6-0.7,4.8-8.4,12.5S100.7,93,92.2,97.3c-8.6,4.2-12.6,3.9-13.8,1.9c-1.2-2,0.4-6.5,5.8-12.5c5.4-5.9,22.4-14.5,22.4-14.5
				l21.2-14.8l1.2-5.7"/>
			<path class="st2" d="M129.3,45.3c-1.3,9.6-4.2,12.5-8.1,15.5c-6.5,4.9-12.9,8-14.4,8.7C103,71.4,89.4,79,82.2,89.9
				c-2.2,3.3,0,4.7,0.4,4.9c0.4,0.3,5.4,0.9,16-5.5s15.3-10.2,21.2-16.4c3.2-3.3,3.6-5.2,3.6-6.1c0-1-0.7-1.5-1.9-1.7
				c-0.6-0.2-0.7-0.4,0-0.9c0.7-0.4,3.8-1.9,4.5-2.5s4.2-2.9,4.4-6.7S130.4,48.6,129.3,45.3L129.3,45.3z"/>
			<path class="st1" d="M96.6,150.9c0.2-11.3,10.8-21.9,24.1-22.1c17-0.2,28.8,16.9,37.4,16.7c7.3-0.2,21.2-14.4,28.1-14.4
				c7.3,0,9.3,7.6,9.3,12.1s-1.5,12.6-4.9,17.7s-5.7,7-9.7,6.7c-5.2-0.4-15.7-16.7-22.4-17c-8.4-0.3-26.7,17.6-41.1,17.6
				c-8.7,0-11.3-1.3-14.2-3.2C98.7,162,96.5,157.3,96.6,150.9L96.6,150.9z"/>
			<path class="st4" d="M184.1,88.2c2.9,8.9,0.2,16.9-1.7,21.8s-11.6,26.5-64.2,50c-9.7,4.4-11.8,6.2-22.8,6.4
				c-9.3,0.2-14.1-3.1-17.1-5.8l-1.4,0.1c11.8,20,34,32.8,57.8,32.8c35,0,65.4-25.4,65.4-63.9c0-21.1-8.6-35.9-17.1-45.5
				C183.1,85.1,183.6,86.4,184.1,88.2z"/>
		</g>
		<g>
			<circle class="st5" cx="134.2" cy="127.6" r="115.1"/>
		</g>
		<path class="st0" d="M253,56.3c0,15.6-12.6,28.2-28.2,28.2s-28.2-12.6-28.2-28.2s12.6-28.2,28.2-28.2
			C240.3,28.1,253,40.7,253,56.3z"/>
	</g>
</g>
<g id="Layer_2" class="st6">
</g>
<g id="Layer_4" class="st6">
</g>
<g id="Layer_3" class="st6">
	<g class="st7">
		<g>
			<circle class="st8" cx="68.6" cy="183.9" r="58.2"/>
			<circle class="st9" cx="68.6" cy="183.9" r="33.5"/>
		</g>
		<g>
			<circle class="st8" cx="134.1" cy="70.9" r="58.2"/>
			<circle class="st9" cx="134.1" cy="70.9" r="33.5"/>
		</g>
		<g>
			<circle class="st8" cx="199.9" cy="183.9" r="58.2"/>
			<circle class="st9" cx="199.9" cy="183.9" r="33.5"/>
		</g>
		<circle class="st9" cx="97.6" cy="138.1" r="14.3"/>
		<circle class="st9" cx="126" cy="184.9" r="14.3"/>
		<circle class="st9" cx="141.6" cy="184.9" r="14.3"/>
		<circle class="st9" cx="172.6" cy="137.5" r="14.3"/>
		<circle class="st9" cx="105.7" cy="119.8" r="14.3"/>
		<circle class="st9" cx="166.4" cy="120.8" r="14.3"/>
	</g>
</g>
</svg>
